<svg width="40" height="40" viewBox="0 0 40 40" fill="none" xmlns="http://www.w3.org/2000/svg">
<g clip-path="url(#clip0_3001_176)">
<circle cx="20" cy="20" r="20" fill="#00A3D3"/>
<g clip-path="url(#clip1_3001_176)">
<path d="M13.736 10.9223C13.4235 10.9317 13.1491 11.0966 12.9193 11.3264L12.536 11.709L16.6901 15.9388L17.2931 15.3358C17.6565 14.9723 17.6565 14.3723 17.2931 14.0089L14.61 11.3264C14.3501 11.0665 14.0484 10.9127 13.736 10.9223ZM12.0929 12.1509L11.6528 12.5904C10.9328 13.3105 10.9375 14.2527 10.9375 14.6876C10.9375 16.4871 11.6569 19.5983 16.0284 23.9698C20.4 28.3413 23.5117 29.0613 25.3113 29.0613C25.7462 29.0613 26.6884 29.0661 27.4084 28.346L27.8064 27.948L23.6523 23.7183L23.2166 24.1547C22.9583 24.413 22.7677 24.4438 22.5824 24.422C22.3971 24.4003 22.2055 24.2931 22.0654 24.1846C21.3015 23.5932 20.0647 22.7466 18.6584 21.3404C17.2522 19.9341 16.4056 18.6967 15.8142 17.9328C15.7058 17.7927 15.5986 17.6036 15.5768 17.4183C15.5549 17.2329 15.5885 17.0399 15.8466 16.7817L16.2476 16.3807L12.0929 12.1509ZM25.3259 22.4329C25.0852 22.4329 24.8448 22.524 24.6631 22.7057L24.0942 23.2752L28.2489 27.5055L28.6725 27.082C28.9022 26.8523 29.0663 26.5753 29.0759 26.2629C29.0854 25.9504 28.9324 25.6487 28.6725 25.3889L25.9894 22.7057C25.8077 22.524 25.5666 22.4329 25.3259 22.4329Z" fill="white"/>
</g>
</g>
<defs>
<clipPath id="clip0_3001_176">
<rect width="40" height="40" fill="white"/>
</clipPath>
<clipPath id="clip1_3001_176">
<rect width="20" height="20" fill="white" transform="translate(10 10)"/>
</clipPath>
</defs>
</svg>
