<svg width="40" height="40" viewBox="0 0 40 40" fill="none" xmlns="http://www.w3.org/2000/svg">
<g clip-path="url(#clip0_4011_3194)">
<path d="M20 40C31.0457 40 40 31.0457 40 20C40 8.9543 31.0457 0 20 0C8.9543 0 0 8.9543 0 20C0 31.0457 8.9543 40 20 40Z" fill="url(#paint0_linear_4011_3194)"/>
<path fill-rule="evenodd" clip-rule="evenodd" d="M9.05315 19.7889C14.8835 17.2487 18.7714 15.574 20.7167 14.7649C26.2709 12.4548 27.425 12.0535 28.1772 12.0402C28.3427 12.0373 28.7126 12.0783 28.9522 12.2728C29.3077 12.5612 29.3097 13.1873 29.2703 13.6017C28.9692 16.7642 27.6669 24.4386 27.0043 27.9806C26.7239 29.4794 26.1719 29.982 25.6375 30.0311C24.4761 30.138 23.5942 29.2635 22.4692 28.5262C20.709 27.3723 19.7146 26.654 18.0059 25.5281C16.0313 24.2268 17.3114 23.5117 18.4367 22.3428C18.7312 22.037 23.8485 17.3824 23.9475 16.9601C23.96 16.9073 23.9714 16.7104 23.8545 16.6065C23.7375 16.5026 23.565 16.5381 23.4404 16.5663C23.2639 16.6064 20.4518 18.4651 15.0043 22.1423C14.2061 22.6904 13.4832 22.9574 12.8354 22.9435C12.1213 22.9281 10.7477 22.5397 9.72651 22.2078C8.47401 21.8006 7.47854 21.5853 7.56526 20.8939C7.61042 20.5337 8.10636 20.1654 9.05315 19.7889Z" fill="white"/>
</g>
<defs>
<linearGradient id="paint0_linear_4011_3194" x1="20" y1="0" x2="20" y2="39.6875" gradientUnits="userSpaceOnUse">
<stop stop-color="#2AABEE"/>
<stop offset="1" stop-color="#229ED9"/>
</linearGradient>
<clipPath id="clip0_4011_3194">
<rect width="40" height="40" fill="white"/>
</clipPath>
</defs>
</svg>
