<svg width="60" height="60" viewBox="0 0 60 60" fill="none" xmlns="http://www.w3.org/2000/svg">
<circle cx="30" cy="30" r="30" fill="#00A3D3"/>
<path d="M38.4375 16.5234H21.5625C20.2264 16.5247 18.9455 17.056 18.0007 18.0007C17.056 18.9455 16.5247 20.2264 16.5234 21.5625V38.4375C16.5247 39.7736 17.056 41.0545 18.0007 41.9993C18.9455 42.944 20.2264 43.4753 21.5625 43.4766H38.4375C39.7736 43.4753 41.0545 42.944 41.9993 41.9993C42.944 41.0545 43.4753 39.7736 43.4766 38.4375V21.5625C43.4753 20.2264 42.944 18.9455 41.9993 18.0007C41.0545 17.056 39.7736 16.5247 38.4375 16.5234ZM27.0703 36.0328C26.9593 36.1535 26.8245 36.2499 26.6745 36.316C26.5245 36.3822 26.3624 36.4166 26.1984 36.4172C26.0319 36.4197 25.8668 36.3868 25.714 36.3205C25.5613 36.2542 25.4244 36.1561 25.3125 36.0328L24.7922 35.475V37.5C24.8025 37.6661 24.7787 37.8325 24.7222 37.9891C24.6658 38.1456 24.5778 38.2889 24.4639 38.4102C24.3499 38.5315 24.2123 38.6281 24.0596 38.6942C23.9068 38.7602 23.7422 38.7943 23.5758 38.7943C23.4094 38.7943 23.2447 38.7602 23.092 38.6942C22.9392 38.6281 22.8017 38.5315 22.6877 38.4102C22.5737 38.2889 22.4858 38.1456 22.4293 37.9891C22.3729 37.8325 22.3491 37.6661 22.3594 37.5V35.5312L21.8906 36.0562C21.7812 36.1777 21.6474 36.2747 21.498 36.3409C21.3486 36.4071 21.1869 36.4411 21.0234 36.4406C20.8588 36.4373 20.6967 36.3998 20.5474 36.3303C20.3981 36.2609 20.2649 36.1612 20.1562 36.0375C19.9352 35.7908 19.813 35.4711 19.813 35.1398C19.813 34.8086 19.9352 34.4889 20.1562 34.2422L22.7297 31.4297C22.8424 31.3084 22.9787 31.2113 23.1302 31.1444C23.2818 31.0775 23.4453 31.0422 23.6109 31.0406C23.7794 31.0428 23.9455 31.0807 24.0982 31.1518C24.2509 31.2229 24.3868 31.3256 24.4969 31.4531L27.0703 34.2188C27.2976 34.4661 27.4237 34.7898 27.4237 35.1258C27.4237 35.4617 27.2976 35.7854 27.0703 36.0328ZM33.5203 31.4062C33.4098 31.5276 33.2752 31.6245 33.125 31.6906C32.9749 31.7568 32.8125 31.7909 32.6484 31.7906C32.4851 31.7905 32.3236 31.7563 32.1742 31.6901C32.0249 31.6239 31.891 31.5272 31.7812 31.4062L31.2609 30.8484V37.5C31.2713 37.6661 31.2474 37.8325 31.191 37.9891C31.1345 38.1456 31.0466 38.2889 30.9326 38.4102C30.8187 38.5315 30.6811 38.6281 30.5283 38.6942C30.3756 38.7602 30.2109 38.7943 30.0445 38.7943C29.8781 38.7943 29.7135 38.7602 29.5607 38.6942C29.408 38.6281 29.2704 38.5315 29.1564 38.4102C29.0425 38.2889 28.9545 38.1456 28.8981 37.9891C28.8416 37.8325 28.8178 37.6661 28.8281 37.5V30.8766L28.3594 31.3969C28.2498 31.5181 28.116 31.6149 27.9666 31.6811C27.8172 31.7473 27.6556 31.7815 27.4922 31.7812C27.3265 31.7841 27.1621 31.7522 27.0095 31.6876C26.8569 31.623 26.7195 31.5272 26.6063 31.4062C26.3855 31.1603 26.2635 30.8414 26.2635 30.5109C26.2635 30.1805 26.3855 29.8616 26.6063 29.6156L29.1797 26.8031C29.2912 26.6827 29.4259 26.5862 29.5758 26.5193C29.7256 26.4524 29.8875 26.4166 30.0516 26.4141C30.2217 26.4143 30.3898 26.4513 30.5443 26.5225C30.6988 26.5937 30.8362 26.6974 30.9469 26.8266L33.5297 29.5969C33.7544 29.8452 33.878 30.1685 33.8763 30.5034C33.8745 30.8382 33.7476 31.1603 33.5203 31.4062ZM39.8484 26.25C39.7379 26.3713 39.6033 26.4682 39.4532 26.5344C39.303 26.6006 39.1407 26.6346 38.9766 26.6344C38.8132 26.6343 38.6517 26.6 38.5023 26.5339C38.353 26.4677 38.2191 26.371 38.1094 26.25L37.5891 25.6922V37.5C37.5994 37.6661 37.5756 37.8325 37.5191 37.9891C37.4626 38.1456 37.3747 38.2889 37.2608 38.4102C37.1468 38.5315 37.0092 38.6281 36.8565 38.6942C36.7037 38.7602 36.5391 38.7943 36.3727 38.7943C36.2062 38.7943 36.0416 38.7602 35.8889 38.6942C35.7361 38.6281 35.5985 38.5315 35.4846 38.4102C35.3706 38.2889 35.2827 38.1456 35.2262 37.9891C35.1697 37.8325 35.1459 37.6661 35.1562 37.5V25.6922L34.6875 26.2172C34.5786 26.338 34.4456 26.4347 34.297 26.5009C34.1485 26.5671 33.9877 26.6014 33.825 26.6016C33.6621 26.6012 33.5011 26.5673 33.3519 26.502C33.2027 26.4367 33.0685 26.3413 32.9578 26.2219C32.7368 25.9751 32.6145 25.6555 32.6145 25.3242C32.6145 24.9929 32.7368 24.6733 32.9578 24.4266L35.5312 21.6141C35.6425 21.4896 35.7792 21.3905 35.932 21.3234C36.0848 21.2563 36.2503 21.2227 36.4172 21.225C36.5849 21.2272 36.7503 21.2652 36.9023 21.3363C37.0542 21.4074 37.1893 21.5101 37.2984 21.6375L39.8438 24.4219C40.0658 24.6681 40.1886 24.988 40.1886 25.3195C40.1886 25.6511 40.0658 25.9709 39.8438 26.2172L39.8484 26.25Z" fill="white"/>
</svg>
