<svg width="60" height="60" viewBox="0 0 60 60" fill="none" xmlns="http://www.w3.org/2000/svg">
<circle cx="30" cy="30" r="30" fill="#00A3D3"/>
<path d="M34.4252 27.4106H25.5747V29.1713H34.4252V27.4106Z" fill="white"/>
<path d="M34.4238 18.0298V22.1346H36.1837V23.8924H23.8163V22.1346H25.5762V18.0298H20.2986V45.0002H39.7015V18.0298H34.4238ZM27.3347 36.2083V37.9662H25.5755V36.2083H27.3347ZM25.5755 34.4477V32.6899H27.3347V34.4477H25.5755ZM27.3347 39.7268V41.4846H25.5755V39.7268H27.3347ZM30.8796 36.2083V37.9662H29.1204V36.2083H30.8796ZM29.1204 34.4477V32.6899H30.8796V34.4477H29.1204ZM30.8796 39.7268V41.4846H29.1204V39.7268H30.8796ZM34.4245 36.2083V37.9662H32.6653V36.2083H34.4245ZM32.6653 34.4477V32.6899H34.4245V34.4477H32.6653ZM34.4245 39.7268V41.4846H32.6653V39.7268H34.4245ZM23.817 25.6531H36.1831V30.9293H23.817V25.6531Z" fill="white"/>
<path d="M32.666 15H27.334V22.1344H32.666V15Z" fill="white"/>
</svg>
