<svg width="60" height="60" viewBox="0 0 60 60" fill="none" xmlns="http://www.w3.org/2000/svg">
<circle cx="30" cy="30" r="30" fill="#00A3D3"/>
<g clip-path="url(#clip0_4013_4991)">
<path d="M15 20.1562V43.2422C15 44.2114 15.7886 45 16.7578 45H43.2422C44.2114 45 45 44.2114 45 43.2422V20.1562H15ZM18.2227 23.3203C18.2227 22.3495 19.0096 21.5625 19.9805 21.5625H39.9609C40.9318 21.5625 41.7188 22.3495 41.7188 23.3203V26.9531C41.7188 27.924 40.9318 28.7109 39.9609 28.7109H19.9805C19.0096 28.7109 18.2227 27.924 18.2227 26.9531V23.3203ZM29.2383 40.0781C29.2383 41.049 28.4513 41.8359 27.4805 41.8359H19.9805C19.0096 41.8359 18.2227 41.049 18.2227 40.0781V31.8164C18.2227 30.8456 19.0096 30.0586 19.9805 30.0586H27.4805C28.4513 30.0586 29.2383 30.8456 29.2383 31.8164V40.0781ZM41.7773 40.0781C41.7773 41.049 40.9904 41.8359 40.0195 41.8359H32.5195C31.5487 41.8359 30.7617 41.049 30.7617 40.0781V31.8164C30.7617 30.8456 31.5487 30.0586 32.5195 30.0586H40.0195C40.9904 30.0586 41.7773 30.8456 41.7773 31.8164V40.0781Z" fill="white"/>
<path d="M43.2422 15H16.7578C15.7886 15 15 15.7886 15 16.7578V18.3984H45V16.7578C45 15.7886 44.2114 15 43.2422 15Z" fill="white"/>
<path d="M39.9945 23.3203H19.9805V26.9531H39.9945C39.9952 26.9531 39.9956 26.9531 39.9956 26.9531L39.9945 23.3203ZM30.8725 26.0742H29.1275C28.6421 26.0742 28.2486 25.6807 28.2486 25.1953C28.2486 24.7099 28.6421 24.3164 29.1275 24.3164H30.8725C31.3579 24.3164 31.7514 24.7099 31.7514 25.1953C31.7514 25.6807 31.3579 26.0742 30.8725 26.0742Z" fill="white"/>
<path d="M27.4896 31.8164H19.9805V40.0781H27.4896C27.4904 40.0781 27.4907 40.0781 27.4907 40.0781L27.4896 31.8164ZM26.6016 36.8965C26.6016 37.3819 26.208 37.7754 25.7227 37.7754C25.2373 37.7754 24.8438 37.3819 24.8438 36.8965V35.1516C24.8438 34.6662 25.2373 34.2727 25.7227 34.2727C26.208 34.2727 26.6016 34.6662 26.6016 35.1516V36.8965Z" fill="white"/>
<path d="M39.9945 31.8164H32.5195V40.0781H39.9945C39.9952 40.0781 39.9956 40.0781 39.9956 40.0781L39.9945 31.8164ZM39.1406 36.8965C39.1406 37.3819 38.7471 37.7754 38.2617 37.7754C37.7763 37.7754 37.3828 37.3819 37.3828 36.8965V35.1516C37.3828 34.6662 37.7763 34.2727 38.2617 34.2727C38.7471 34.2727 39.1406 34.6662 39.1406 35.1516V36.8965Z" fill="white"/>
</g>
<defs>
<clipPath id="clip0_4013_4991">
<rect width="30" height="30" fill="white" transform="translate(15 15)"/>
</clipPath>
</defs>
</svg>
