<svg width="60" height="60" viewBox="0 0 60 60" fill="none" xmlns="http://www.w3.org/2000/svg">
<circle cx="30" cy="30" r="30" fill="#00A3D3"/>
<g clip-path="url(#clip0_4013_5021)">
<path d="M27.188 15.938C20.4682 15.938 15.0008 20.5635 15.0008 26.2502C15.0008 28.5826 15.9196 30.8157 17.607 32.6307L15.2746 34.9631C15.0065 35.2312 14.9258 35.6343 15.0721 35.9849C15.2165 36.3337 15.5596 36.5624 15.9383 36.5624H27.188C33.9078 36.5624 39.3752 31.9369 39.3752 26.2502C39.3752 20.5635 33.9078 15.938 27.188 15.938Z" fill="white"/>
<path d="M42.3939 40.1304C44.0813 38.3173 45 36.0823 45 33.7499C45 30.8325 43.5545 28.2001 41.2464 26.3232C41.1995 33.0093 34.9147 38.4373 27.188 38.4373H21.9719C23.9931 41.7709 28.0899 44.0621 32.8129 44.0621H44.0626C44.4413 44.0621 44.7844 43.8334 44.9288 43.4828C45.0732 43.1322 44.9925 42.729 44.7263 42.4609L42.3939 40.1304Z" fill="white"/>
</g>
<defs>
<clipPath id="clip0_4013_5021">
<rect width="30" height="30" fill="white" transform="translate(15 15)"/>
</clipPath>
</defs>
</svg>
