<svg width="25" height="40" viewBox="0 0 25 40" fill="none" xmlns="http://www.w3.org/2000/svg">
    <path d="M22.0771 17.0588C21.608 17.0588 21.1492 17.1993 20.7609 17.4632C20.6442 17.1228 20.4504 16.8138 20.1948 16.5604C19.9392 16.307 19.6286 16.116 19.2872 16.0022C18.9457 15.8883 18.5826 15.8548 18.2261 15.9042C17.8695 15.9535 17.5292 16.0845 17.2315 16.2868C17.1209 15.9583 16.9382 15.6588 16.6968 15.4101C16.4554 15.1615 16.1614 14.97 15.8363 14.8498C15.5112 14.7295 15.1634 14.6836 14.8183 14.7153C14.4731 14.7471 14.1395 14.8556 13.8418 15.0331V7.64707C13.8418 7.02303 13.5939 6.42455 13.1526 5.98329C12.7114 5.54203 12.1129 5.29413 11.4889 5.29413C10.8648 5.29413 10.2663 5.54203 9.82508 5.98329C9.38382 6.42455 9.13592 7.02303 9.13592 7.64707V24.086C9.1371 24.117 9.12849 24.1475 9.11133 24.1732C9.09417 24.1989 9.06933 24.2186 9.04034 24.2294C9.01216 24.2431 8.98026 24.2471 8.94956 24.2409C8.91886 24.2347 8.89107 24.2185 8.87048 24.1949L6.99548 22.3213C6.45111 21.7725 5.76371 21.3874 5.01139 21.2097C4.25907 21.032 3.472 21.0689 2.7396 21.3162C2.48479 21.4006 2.25293 21.5427 2.06209 21.7315C1.87125 21.9202 1.72659 22.1505 1.63941 22.4044C1.55222 22.6583 1.52486 22.9289 1.55946 23.1951C1.59406 23.4612 1.68968 23.7158 1.83886 23.939L5.70578 29.7375C6.30682 30.6451 6.98428 31.4997 7.73078 32.2919C8.47705 33.0625 9.37183 33.6736 10.361 34.0886C11.3502 34.5035 12.4133 34.7135 13.4859 34.7059H16.4271C18.0415 34.7111 19.62 34.2297 20.9568 33.3246C22.2935 32.4194 23.3266 31.1325 23.9212 29.6316C24.2609 28.7846 24.4352 27.8802 24.4337 26.9669V19.4118C24.4337 19.1025 24.3727 18.7962 24.2543 18.5105C24.1358 18.2248 23.9621 17.9652 23.7433 17.7467C23.5244 17.5282 23.2646 17.3549 22.9787 17.2369C22.6928 17.1189 22.3864 17.0584 22.0771 17.0588ZM23.2536 26.9669C23.2549 27.7299 23.1096 28.486 22.8256 29.1941C22.318 30.4766 21.4355 31.5763 20.2935 32.3496C19.1514 33.123 17.8027 33.5341 16.4234 33.5294H13.4822C12.5693 33.5368 11.6644 33.3593 10.8219 33.0076C9.97938 32.6559 9.21679 32.1373 8.58004 31.4831C7.88015 30.7394 7.24477 29.9374 6.68078 29.086L2.81754 23.2868C2.76931 23.2143 2.73837 23.1317 2.72709 23.0453C2.71581 22.959 2.7245 22.8712 2.75248 22.7887C2.78047 22.7062 2.82701 22.6313 2.88851 22.5696C2.95002 22.508 3.02485 22.4613 3.10725 22.4331C3.63342 22.2551 4.19895 22.2282 4.73964 22.3555C5.28032 22.4827 5.7745 22.759 6.16607 23.153L8.04107 25.0272C8.22708 25.2141 8.46443 25.3416 8.723 25.3934C8.98157 25.4452 9.2497 25.419 9.49337 25.3182C9.73703 25.2174 9.94525 25.0464 10.0916 24.827C10.2379 24.6077 10.3158 24.3497 10.3153 24.086V7.64707C10.3153 7.33505 10.4393 7.03581 10.6599 6.81518C10.8805 6.59455 11.1798 6.4706 11.4918 6.4706C11.8038 6.4706 12.1031 6.59455 12.3237 6.81518C12.5443 7.03581 12.6683 7.33505 12.6683 7.64707V18.2353C12.6683 18.3913 12.7303 18.5409 12.8406 18.6512C12.9509 18.7616 13.1005 18.8235 13.2565 18.8235C13.4125 18.8235 13.5621 18.7616 13.6725 18.6512C13.7828 18.5409 13.8447 18.3913 13.8447 18.2353V17.0588C13.8447 16.7468 13.9687 16.4476 14.1893 16.2269C14.41 16.0063 14.7092 15.8824 15.0212 15.8824C15.3332 15.8824 15.6325 16.0063 15.8531 16.2269C16.0737 16.4476 16.1977 16.7468 16.1977 17.0588V18.8235C16.1977 18.9795 16.2597 19.1292 16.37 19.2395C16.4803 19.3498 16.6299 19.4118 16.7859 19.4118C16.9419 19.4118 17.0916 19.3498 17.2019 19.2395C17.3122 19.1292 17.3742 18.9795 17.3742 18.8235V18.2353C17.3742 18.0808 17.4046 17.9278 17.4637 17.7851C17.5228 17.6424 17.6095 17.5127 17.7187 17.4034C17.828 17.2942 17.9577 17.2075 18.1004 17.1484C18.2432 17.0893 18.3961 17.0588 18.5506 17.0588C18.7051 17.0588 18.8581 17.0893 19.0008 17.1484C19.1436 17.2075 19.2733 17.2942 19.3825 17.4034C19.4918 17.5127 19.5784 17.6424 19.6375 17.7851C19.6967 17.9278 19.7271 18.0808 19.7271 18.2353V20C19.7271 20.156 19.7891 20.3056 19.8994 20.416C20.0097 20.5263 20.1593 20.5882 20.3153 20.5882C20.4713 20.5882 20.621 20.5263 20.7313 20.416C20.8416 20.3056 20.9036 20.156 20.9036 20V19.4118C20.9036 19.0998 21.0275 18.8005 21.2482 18.5799C21.4688 18.3593 21.768 18.2353 22.08 18.2353C22.3921 18.2353 22.6913 18.3593 22.9119 18.5799C23.1326 18.8005 23.2565 19.0998 23.2565 19.4118L23.2536 26.9669Z" fill="#00A3D3" />
    <path d="M16.2504 9.99999H20.7129L19.3636 11.3478C19.2531 11.4583 19.1911 11.6081 19.1911 11.7643C19.1911 11.9206 19.2531 12.0704 19.3636 12.1809C19.4741 12.2913 19.6239 12.3534 19.7802 12.3534C19.9364 12.3534 20.0862 12.2913 20.1967 12.1809L22.5496 9.82793C22.6044 9.77328 22.6479 9.70836 22.6776 9.63688C22.7073 9.5654 22.7225 9.48877 22.7225 9.41138C22.7225 9.33399 22.7073 9.25736 22.6776 9.18588C22.6479 9.11441 22.6044 9.04948 22.5496 8.99484L20.1967 6.6419C20.142 6.5872 20.0771 6.54381 20.0056 6.5142C19.9341 6.4846 19.8575 6.46936 19.7802 6.46936C19.7028 6.46936 19.6262 6.4846 19.5547 6.5142C19.4832 6.54381 19.4183 6.5872 19.3636 6.6419C19.3089 6.6966 19.2655 6.76154 19.2359 6.83301C19.2063 6.90448 19.1911 6.98108 19.1911 7.05844C19.1911 7.1358 19.2063 7.2124 19.2359 7.28387C19.2655 7.35535 19.3089 7.42029 19.3636 7.47499L20.7129 8.82352H16.2504C16.0944 8.82352 15.9447 8.88549 15.8344 8.99581C15.7241 9.10612 15.6621 9.25574 15.6621 9.41175C15.6621 9.56776 15.7241 9.71738 15.8344 9.8277C15.9447 9.93801 16.0944 9.99999 16.2504 9.99999ZM3.30919 12.3529C3.42582 12.3533 3.53992 12.319 3.63702 12.2544C3.73411 12.1898 3.8098 12.0978 3.85448 11.9901C3.89917 11.8823 3.91082 11.7638 3.88796 11.6494C3.8651 11.535 3.80876 11.4301 3.72611 11.3478L2.37684 9.99999H6.83787C6.91512 9.99999 6.99161 9.98477 7.06298 9.95521C7.13435 9.92565 7.19919 9.88232 7.25382 9.8277C7.30844 9.77307 7.35177 9.70823 7.38133 9.63686C7.41089 9.56549 7.42611 9.489 7.42611 9.41175C7.42611 9.3345 7.41089 9.25801 7.38133 9.18664C7.35177 9.11528 7.30844 9.05043 7.25382 8.99581C7.19919 8.94118 7.13435 8.89785 7.06298 8.86829C6.99161 8.83873 6.91512 8.82352 6.83787 8.82352H2.37684L3.72611 7.47499C3.78081 7.42029 3.8242 7.35535 3.8538 7.28387C3.88341 7.2124 3.89864 7.1358 3.89864 7.05844C3.89864 6.98108 3.88341 6.90448 3.8538 6.83301C3.8242 6.76154 3.78081 6.6966 3.72611 6.6419C3.67141 6.5872 3.60647 6.54381 3.53499 6.5142C3.46352 6.4846 3.38692 6.46936 3.30956 6.46936C3.2322 6.46936 3.1556 6.4846 3.08413 6.5142C3.01266 6.54381 2.94772 6.5872 2.89302 6.6419L0.540077 8.99484C0.485275 9.04948 0.441794 9.11441 0.412127 9.18588C0.382459 9.25736 0.367188 9.33399 0.367188 9.41138C0.367188 9.48877 0.382459 9.5654 0.412127 9.63688C0.441794 9.70836 0.485275 9.77328 0.540077 9.82793L2.89302 12.1809C2.94769 12.2355 3.01258 12.2788 3.08399 12.3083C3.1554 12.3378 3.23192 12.353 3.30919 12.3529Z" fill="#00A3D3" />
</svg>